<svg width="502" height="228" viewBox="0 0 502 228" fill="none" xmlns="http://www.w3.org/2000/svg">
<path d="M129.066 3.91178C125.732 7.37845 125.199 8.71178 125.866 12.1785C127.199 18.7118 130.266 21.2451 136.799 21.2451C141.332 21.2451 143.066 20.5785 145.199 17.7785C149.732 12.0451 147.999 4.17845 141.732 1.37845C136.532 -1.02155 133.332 -0.354884 129.066 3.91178Z" fill="#EA4840"/>
<path d="M432.419 59.9424C424.286 68.754 422.985 72.143 424.611 80.9545C427.864 97.5608 435.347 104 451.287 104C462.348 104 466.577 102.305 471.782 95.1885C482.843 80.6156 478.614 60.6203 463.324 53.5033C450.637 47.403 442.829 49.0975 432.419 59.9424Z" fill="#F4A832"/>
<path d="M43.7325 29.2452C39.8659 31.5118 38.2659 38.9785 39.9992 46.9785C41.3325 53.5118 41.1992 54.5785 38.1325 60.0452C33.7325 68.0452 32.7992 73.5118 34.6659 81.2452C36.7992 90.1785 43.3325 97.2452 53.3325 101.778C80.2659 113.912 117.866 105.512 126.133 85.6452C129.066 78.5785 128.533 67.9118 124.666 60.4452C121.599 54.4452 121.466 53.3785 122.799 46.8452C126.399 29.1118 116.133 22.7118 101.466 33.3785C95.9992 37.2452 95.3325 37.3785 81.3325 37.5118C67.8659 37.6452 66.6659 37.3785 62.5325 34.1785C54.7992 28.3118 48.2659 26.7118 43.7325 29.2452ZM55.4659 41.5118C57.5992 43.2452 60.3992 45.5118 61.5992 46.5785C63.5992 48.4452 65.3325 48.5785 72.7992 47.3785C78.5325 46.5785 84.2659 46.5785 89.4659 47.3785C97.4659 48.7118 97.4659 48.7118 104.133 43.6452C107.866 40.8452 111.466 38.5785 112.133 38.5785C113.999 38.5785 113.599 43.9118 111.199 50.1785C109.066 55.7785 109.066 55.9118 112.399 59.7785C119.333 68.0452 120.133 78.5785 114.533 85.7785C112.933 87.7785 108.666 90.9785 104.933 92.8452C99.0659 95.9118 95.8659 96.5785 84.5325 96.9785C66.3992 97.7785 57.5992 95.2452 49.5992 87.1118C43.7325 81.3785 43.7325 81.1118 44.2659 73.9118C44.7992 68.1785 45.8659 65.3785 49.0659 61.3785C53.1992 56.1785 53.3325 56.0452 51.3325 50.5785C49.0659 44.3118 48.6659 38.5785 50.5325 38.5785C51.0659 38.5785 53.3325 39.9118 55.4659 41.5118Z" fill="#EA4840"/>
<path d="M57.467 68.4458C53.7337 72.8458 60.4003 79.5124 64.8003 75.7791C65.867 74.8458 66.667 72.5791 66.4003 70.7124C66.1337 68.0458 65.2003 67.1124 62.5337 66.8458C60.667 66.5791 58.4003 67.3791 57.467 68.4458Z" fill="#EA4840"/>
<path d="M96.9324 67.5117C95.3324 69.1117 95.9991 74.1784 97.9991 75.9117C100.266 77.7784 104.799 76.5784 105.866 73.7784C107.599 69.1117 100.399 64.0451 96.9324 67.5117Z" fill="#EA4840"/>
<path d="M74.666 76.5791C74.666 80.3124 76.9327 81.2458 82.7993 80.0458C86.1327 79.3791 87.3327 78.4458 87.3327 76.5791C87.3327 74.3124 86.3993 73.9124 81.066 73.7791C75.1993 73.6458 74.666 73.9124 74.666 76.5791Z" fill="#EA4840"/>
<path d="M227.734 110.712C225.467 111.912 225.334 115.512 225.334 155.646C225.334 187.912 225.734 199.779 226.934 200.979C229.067 203.112 236.267 203.112 238.401 200.979C239.467 199.912 240.001 193.512 240.001 180.979C240.001 160.312 241.201 156.046 248.001 152.579C252.534 150.179 257.334 150.046 261.734 152.046C267.734 154.712 268.534 157.912 268.934 179.912C269.334 194.046 270.001 200.846 271.067 201.512C273.601 203.112 280.667 202.712 282.401 200.979C284.534 198.846 284.534 160.046 282.534 152.579C278.001 136.312 256.134 130.979 243.067 142.979L240.001 145.646V129.112C240.001 117.912 239.467 111.912 238.401 110.846C236.401 108.846 230.801 108.846 227.734 110.712Z" fill="black"/>
<path d="M300.134 114.046C298.667 116.046 297.334 117.913 297.334 118.446C297.467 125.246 304.267 129.913 310.801 127.646C316.134 125.779 318.267 119.113 314.934 114.579C311.201 109.646 303.867 109.246 300.134 114.046Z" fill="black"/>
<path d="M30 137.245C24.8 138.445 17.7333 142.045 16.5333 144.179C15.7333 145.379 15.2 144.845 14.6667 142.579C13.6 138.312 8 136.179 3.33333 138.312L0 139.912L0.266667 182.179L0.666667 224.579L4.26667 226.179C6.66667 227.512 8.8 227.512 11.2 226.579C14.6667 225.379 14.6667 225.112 14.6667 211.245C14.6667 203.512 14.9333 197.245 15.2 197.245C15.6 197.245 18.1333 198.579 20.9333 200.179C28 204.445 42.2667 204.445 50.4 200.179C72.6667 188.445 71.6 150.845 48.6667 139.645C43.4667 137.112 35.0667 135.912 30 137.245ZM42.2667 153.245C50.6667 158.312 53.7333 171.512 48.8 180.979C45.8667 186.712 36.4 191.245 30 190.045C14.4 187.112 9.33333 166.179 21.6 155.112C23.2 153.512 25.6 151.912 26.6667 151.512C30.9333 149.912 38.2667 150.712 42.2667 153.245Z" fill="black"/>
<path d="M103.599 137.378C79.7328 141.245 68.2662 171.378 83.0662 190.845C89.5995 199.378 98.3995 203.245 110.666 203.245C122.533 203.112 129.199 200.178 136.266 191.912C151.333 174.445 143.199 144.045 122.133 138.845C112.933 136.445 110.266 136.312 103.599 137.378ZM118.666 152.578C127.999 157.378 131.466 168.578 126.799 179.112C124.666 184.178 122.933 185.912 117.866 188.045C104.666 193.912 91.9995 185.245 91.9995 170.312C91.9995 155.645 106.266 146.178 118.666 152.578Z" fill="black"/>
<path d="M178.267 137.779C158.534 143.245 148.534 167.245 158.134 186.312C162.134 194.312 167.601 198.979 176.667 202.045C187.867 205.912 204.134 202.445 211.201 194.712C214.267 191.245 213.201 185.645 208.801 183.779C206.267 182.579 204.801 182.979 200.134 186.045C189.334 193.112 176.534 189.912 171.734 178.979C163.334 159.912 181.734 143.512 199.601 154.045C205.334 157.379 205.601 157.379 208.267 154.979C213.067 150.712 213.867 147.912 211.067 144.979C204.534 137.779 189.734 134.579 178.267 137.779Z" fill="black"/>
<path d="M460.4 137.378C453.067 138.712 448.267 141.378 443.2 146.845C436 154.445 434 159.512 434 170.578C434 181.378 436 186.712 442.533 193.645C448.933 200.712 455.467 203.245 467.333 203.245C475.733 203.245 479.2 202.578 483.333 200.312C493.867 194.712 499.867 185.512 500.933 173.378C503.067 149.912 483.867 132.845 460.4 137.378ZM476.933 153.245C482.533 156.578 485.867 163.112 485.733 170.712C485.6 179.245 482.267 184.978 475.6 188.045C468.667 191.112 466 191.112 459.2 188.045C446 182.045 445.867 159.245 459.067 152.712C464.8 149.912 471.733 150.045 476.933 153.245Z" fill="black"/>
<path d="M302.4 138.712C300.267 139.912 300 142.846 300 169.646C300 190.979 300.4 199.779 301.6 200.979C303.733 203.112 310.933 203.112 313.067 200.979C314.267 199.779 314.667 190.979 314.667 169.646C314.667 141.646 314.533 139.912 312.133 138.579C308.8 136.846 305.333 136.979 302.4 138.712Z" fill="black"/>
<path d="M359.6 138.845C357.467 140.578 356.933 155.112 357.2 208.178L357.333 224.978L361.2 226.312C363.867 227.245 365.867 227.245 368.133 226.045C371.2 224.578 371.333 223.645 371.733 210.978L372.133 197.378L379.067 200.712C391.6 206.578 403.867 204.445 413.6 194.712C432.933 175.378 422.4 139.645 396.8 137.512C386.8 136.712 380.8 138.045 376 142.045C372.133 145.378 372 145.378 372 142.712C372 137.912 364.133 135.512 359.6 138.845ZM398.533 152.978C405.333 156.578 408.267 162.845 407.6 172.312C407.2 178.445 406.4 180.712 403.333 183.912C392.8 194.978 376 190.712 372 176.178C367.467 159.112 383.733 144.978 398.533 152.978Z" fill="black"/>
<path d="M328.934 187.645C325.867 190.979 326.134 196.712 329.334 199.912C332.401 202.979 334.534 203.245 339.334 200.979C343.601 199.112 345.067 193.912 342.534 189.379C340.001 184.845 332.267 183.912 328.934 187.645Z" fill="black"/>
</svg>
