<?xml version="1.0" standalone="no"?>
<!DOCTYPE svg PUBLIC "-//W3C//DTD SVG 20010904//EN"
 "http://www.w3.org/TR/2001/REC-SVG-20010904/DTD/svg10.dtd">
<svg version="1.0" xmlns="http://www.w3.org/2000/svg"
 width="222.000000pt" height="172.000000pt" viewBox="0 0 222.000000 172.000000"
 preserveAspectRatio="xMidYMid meet">
<metadata>
Created by potrace 1.10, written by Peter Selinger 2001-2011
</metadata>
<g transform="translate(0.000000,172.000000) scale(0.050000,-0.050000)"
fill="#ff0000" stroke="none">
<path d="M3365 2888 c-120 -94 -152 -207 -94 -324 120 -240 472 -194 521 68
42 226 -246 399 -427 256z m191 -268 c23 0 26 -6 10 -22 -36 -36 -114 -2 -83
36 16 19 28 22 33 8 4 -12 22 -22 40 -22z"/>
<path d="M1342 2239 c-102 -102 -118 -400 -29 -544 6 -10 -6 -38 -28 -61 -375
-423 -75 -1034 572 -1164 745 -149 1349 109 1484 634 35 138 0 294 -105 466
l-69 114 39 148 c122 464 -198 620 -584 283 -55 -47 -80 -56 -130 -47 -170 33
-250 36 -403 13 l-166 -25 -106 85 c-213 169 -372 201 -475 98z m361 -332
l134 -133 97 27 c127 37 492 37 599 1 l84 -27 142 127 c226 202 304 161 172
-92 -86 -165 -86 -156 -6 -237 213 -215 209 -535 -9 -695 -359 -265 -1121
-247 -1401 34 -186 186 -172 455 33 646 60 57 64 91 20 180 -149 298 -81 383
135 169z"/>
<path d="M1695 1392 c-103 -78 -45 -252 84 -252 93 0 141 49 141 143 0 118
-130 181 -225 109z"/>
<path d="M2595 1392 c-48 -36 -47 -175 2 -219 82 -75 243 -4 243 107 0 108
-156 179 -245 112z"/>
<path d="M2059 1199 c-43 -106 18 -146 215 -141 117 2 160 44 137 134 -14 57
-97 84 -142 47 -23 -19 -42 -20 -81 -2 -77 35 -101 28 -129 -38z"/>
</g>
</svg>
